<?xml version="1.0" encoding="utf-8"?>
<!-- Generator: Adobe Illustrator 23.0.0, SVG Export Plug-In . SVG Version: 6.00 Build 0)  -->
<svg version="1.1" id="Layer_1" xmlns="http://www.w3.org/2000/svg" xmlns:xlink="http://www.w3.org/1999/xlink" x="0px" y="0px"
	 viewBox="0 0 700 700" style="enable-background:new 0 0 700 700;" xml:space="preserve">
<style type="text/css">
	.st0{fill:#FFFFFF;stroke:#153156;stroke-width:3.1674;stroke-miterlimit:10;}
	.st1{fill:none;stroke:#073C5C;stroke-width:14.5471;stroke-linecap:round;stroke-linejoin:round;stroke-miterlimit:10;}
	.st2{fill:#DEF1FC;stroke:#073C5C;stroke-width:15.3678;stroke-linecap:round;stroke-linejoin:round;stroke-miterlimit:10;}
</style>
<g>
	<path class="st0" d="M683.01,694.76h-666c-6.6,0-12-5.4-12-12v-666c0-6.6,5.4-12,12-12h666c6.6,0,12,5.4,12,12v666
		C695.01,689.36,689.61,694.76,683.01,694.76z"/>
	<g>
		<g>
			<line class="st1" x1="234.1" y1="252.92" x2="234.1" y2="294.64"/>
			<line class="st1" x1="395.3" y1="252.92" x2="395.3" y2="294.64"/>
			<path class="st1" d="M476.96,435.01H155.02c-1.5,0-2.73-1.23-2.73-2.73v-36.21c0-1.5,1.23-2.73,2.73-2.73h321.95
				c1.5,0,2.73,1.23,2.73,2.73v36.21C479.69,433.78,478.46,435.01,476.96,435.01z"/>
			<path class="st1" d="M271.81,316.73v-85.89c0-12.36,10.11-22.47,22.47-22.47h42.44c12.36,0,22.47,10.11,22.47,22.47v85.89"/>
			<path class="st1" d="M359.19,234.23v-3.39c0-12.36-10.11-22.47-22.47-22.47h-42.44c-12.36,0-22.47,10.11-22.47,22.47v3.72
				c-59.03,18.84-102.1,74.33-102.1,139.4v0v19.39h292.55v-19.39v0C462.26,308.52,418.72,252.77,359.19,234.23z"/>
		</g>
		<g>
			<path class="st2" d="M479.69,471.08L479.69,471.08c-42.76,0-77.74-34.98-77.74-77.74v0c0-42.76,34.98-77.74,77.74-77.74h0
				c42.76,0,77.74,34.98,77.74,77.74v0C557.44,436.09,522.45,471.08,479.69,471.08z"/>
			<line class="st2" x1="479.69" y1="365.21" x2="479.69" y2="421.45"/>
			<line class="st2" x1="507.81" y1="393.33" x2="451.57" y2="393.33"/>
		</g>
	</g>
</g>
</svg>
