<?xml version="1.0" encoding="utf-8"?>
<!-- Generator: Adobe Illustrator 23.0.0, SVG Export Plug-In . SVG Version: 6.00 Build 0)  -->
<svg version="1.1" id="Layer_1" xmlns="http://www.w3.org/2000/svg" xmlns:xlink="http://www.w3.org/1999/xlink" x="0px" y="0px"
	 viewBox="0 0 700 700" style="enable-background:new 0 0 700 700;" xml:space="preserve">
<style type="text/css">
	.st0{fill:#FFFFFF;stroke:#163056;stroke-width:3.1674;stroke-miterlimit:10;}
	.st1{fill:none;stroke:#033B5C;stroke-width:15.3764;stroke-linecap:round;stroke-linejoin:round;stroke-miterlimit:10;}
	.st2{fill:#DDF1FF;stroke:#033B5C;stroke-width:15.3764;stroke-linecap:round;stroke-linejoin:round;stroke-miterlimit:10;}
	.st3{fill:none;stroke:#033B5C;stroke-width:21.3011;stroke-linecap:round;stroke-linejoin:round;stroke-miterlimit:10;}
</style>
<g>
	<g>
		<path class="st0" d="M683.66,695.26h-666c-6.6,0-12-5.4-12-12v-666c0-6.6,5.4-12,12-12h666c6.6,0,12,5.4,12,12v666
			C695.66,689.86,690.26,695.26,683.66,695.26z"/>
	</g>
	<g>
		<path class="st1" d="M263.58,437.34L263.58,437.34c-47.9-47.9-47.9-126.27,0-174.16l0,0c47.9-47.9,126.27-47.9,174.16,0l0,0
			c47.9,47.9,47.9,126.27,0,174.16l0,0C389.85,485.24,311.47,485.24,263.58,437.34z"/>
		<line class="st2" x1="382.16" y1="318.76" x2="319.16" y2="381.76"/>
		<line class="st2" x1="382.16" y1="381.76" x2="319.16" y2="318.76"/>
	</g>
	<path class="st3" d="M350.66,584.75L350.66,584.75c-128.97,0-234.49-105.52-234.49-234.49v0c0-128.97,105.52-234.49,234.49-234.49
		h0c128.97,0,234.49,105.52,234.49,234.49v0C585.15,479.23,479.63,584.75,350.66,584.75z"/>
</g>
</svg>
