<?xml version="1.0" encoding="utf-8"?>
<!-- Generator: Adobe Illustrator 23.0.0, SVG Export Plug-In . SVG Version: 6.00 Build 0)  -->
<svg version="1.1" id="Layer_1" xmlns="http://www.w3.org/2000/svg" xmlns:xlink="http://www.w3.org/1999/xlink" x="0px" y="0px"
	 viewBox="0 0 292.18 190.58" style="enable-background:new 0 0 292.18 190.58;" xml:space="preserve">
<style type="text/css">
	.st0{display:none;}
	.st1{display:inline;fill:#FFFFFF;}
	.st2{display:inline;}
	.st3{fill:#FFFFFF;}
	.st4{display:none;fill:#FFFFFF;}
</style>
<g>
	<g>
		<g class="st0">
			<path class="st1" d="M192.24,62.16c-0.1-12.06-9.62-21.81-21.36-21.81h-35.26h-0.61h-12.21c-5.06,0-9.16,4.22-9.16,9.42v0.12
				v12.45v1.76v28.15v4.56v12.14c0,5.21,4.1,9.42,9.16,9.42h3.66c5.06,0,9.16-4.22,9.16-9.42V96.82v-4.56V67.37v-0.02h0
				c0.01-1.8,1.42-3.25,3.17-3.25c1.74,0,3.16,1.45,3.17,3.25l0,0v0.02v24.89v16.7c0,5.21,4.1,9.42,9.16,9.42h3.66
				c5.06,0,9.16-4.22,9.16-9.42V67c0.18-1.63,1.51-2.89,3.13-2.89c1.75,0,3.16,1.45,3.17,3.25h0.04v29.46v12.14
				c0,5.21,4.1,9.42,9.15,9.42h3.66c5.06,0,9.16-4.22,9.16-9.42V96.82V64.11v-1.76L192.24,62.16L192.24,62.16z"/>
			<g class="st2">
				<path class="st3" d="M39.54,54.66c0-5.06,1.14-8.77,3.42-11.12c2.28-2.36,5.81-3.53,10.59-3.53h22.24
					c4.99,0,9.48,0.43,13.47,1.28c3.99,0.85,7.5,2.3,10.53,4.33c3.03,2.03,5.39,4.78,7.06,8.23c1.68,3.45,2.51,7.71,2.51,12.78
					c0,4.99-0.83,9.21-2.51,12.67c-1.68,3.46-4.03,6.2-7.06,8.23c-3.03,2.03-6.54,3.47-10.53,4.33c-3.99,0.85-8.48,1.28-13.47,1.28
					H63.5v12.4c0,4.14-1.03,7.31-3.1,9.52c-2.07,2.2-5.03,3.31-8.88,3.31c-3.85,0-6.81-1.11-8.87-3.31c-2.07-2.21-3.1-5.38-3.1-9.52
					V54.66z M77.08,74.55c2.21,0,4.15-0.68,5.82-2.04c1.68-1.35,2.51-3.28,2.51-5.77c0-2.56-0.84-4.56-2.51-5.99
					c-1.68-1.42-4.01-2.14-7.01-2.14H63.5v15.93H77.08z"/>
			</g>
			<path class="st1" d="M244.36,40.35h-53.63c-1.31,0-2.56,0.27-3.7,0.78c4.91,3.93,8.92,9.6,10.15,16.09l0,0v5.97h9.24v45.99
				c0,5.12,4.15,9.27,9.27,9.27h3.7c5.12,0,9.27-4.15,9.27-9.27V63.19h15.69c5.12,0,9.27-4.15,9.27-9.26v-4.31
				C253.62,44.5,249.48,40.35,244.36,40.35z"/>
		</g>
		<path class="st3" d="M164.79,172.3c-76.38,17.41-146.37-3.91-156.34-47.63c-4.46-19.55,3.85-40.25,21.2-58.74v-7.09
			C6.32,80.93-3.76,105.79,1.26,129.1c4.05,18.84,17.53,34.62,38.98,45.66c20.13,10.35,45.9,15.82,74.53,15.82
			c16.61,0,33.68-1.86,50.74-5.54c24.92-5.36,48.11-14.22,67.84-25.74v-14.49C214.2,156.7,190.8,166.37,164.79,172.3z"/>
		<path class="st3" d="M291.18,59.55c-3.61-18.24-16.67-33.54-37.75-44.26C233.73,5.29,208.44,0,180.32,0
			c-15.21,0-30.84,1.57-46.46,4.66C108.61,9.67,85.11,18.31,65.3,29.7v3.69c18.17-10.22,39.97-18.32,63.97-23.07
			c71.88-14.24,136.86,6.78,147.12,47.06c0.53,1.56,0.97,3.17,1.3,4.85c2.39,12.05-1.15,24.9-10.06,37.44
			c-4.91,7.57-11.49,14.9-19.48,21.74v15.65c4.29-3,8.35-6.13,12.13-9.39C284.74,106.59,295.71,82.4,291.18,59.55z"/>
	</g>
	<g>
		<path class="st4" d="M310.24,95.62c0,49.4-68.5,89.44-153.01,89.44c-84.5,0-153-40.04-153-89.44c0-49.39,68.5-89.43,153-89.43
			C241.74,6.19,310.24,46.23,310.24,95.62z"/>
		<g>
			<path class="st3" d="M192.2,62.22c-0.1-12.04-9.6-21.77-21.32-21.77h-35.19h-0.61h-12.19c-5.04,0-9.14,4.21-9.14,9.41v0.12V62.4
				v1.76v28.1v4.54v12.12c0,5.2,4.1,9.41,9.14,9.41h3.65c5.05,0,9.14-4.21,9.14-9.41V96.8v-4.55V67.41V67.4l0,0
				c0.01-1.79,1.42-3.24,3.17-3.24c1.74,0,3.15,1.45,3.16,3.24l0,0v0.01v24.84v16.67c0,5.2,4.1,9.41,9.14,9.41h3.66
				c5.05,0,9.14-4.21,9.14-9.41V67.04c0.18-1.62,1.5-2.88,3.13-2.88c1.74,0,3.15,1.45,3.16,3.24h0.03v29.4v12.12
				c0,5.2,4.09,9.41,9.14,9.41h3.66c5.05,0,9.14-4.21,9.14-9.41V96.8V64.16V62.4L192.2,62.22L192.2,62.22z"/>
			<g>
				<path class="st3" d="M39.8,54.73c0-5.05,1.14-8.75,3.42-11.1c2.27-2.34,5.79-3.51,10.57-3.51h22.2c4.98,0,9.46,0.43,13.44,1.28
					c3.99,0.85,7.49,2.29,10.51,4.32c3.02,2.03,5.37,4.77,7.04,8.22c1.67,3.45,2.51,7.7,2.51,12.75c0,4.98-0.84,9.19-2.51,12.65
					c-1.67,3.45-4.02,6.19-7.04,8.21c-3.02,2.03-6.53,3.47-10.51,4.32c-3.98,0.85-8.47,1.28-13.44,1.28H63.7v12.39
					c0,4.12-1.03,7.28-3.09,9.49c-2.07,2.21-5.02,3.31-8.86,3.31c-3.84,0-6.79-1.11-8.86-3.31c-2.06-2.21-3.09-5.37-3.09-9.49V54.73
					z M77.26,74.57c2.2,0,4.14-0.68,5.82-2.03c1.67-1.35,2.51-3.27,2.51-5.76c0-2.56-0.84-4.55-2.51-5.98
					c-1.68-1.42-4-2.13-6.99-2.13H63.7v15.9H77.26z"/>
			</g>
		</g>
		<path class="st3" d="M244.21,40.45h-44.6v-0.11h-13.76c6.86,4.74,11.37,12.65,11.37,21.62c0,0.46-0.04,0.91-0.07,1.37h2.46v-0.09
			h6.75v45.9c0,5.11,4.14,9.25,9.25,9.25h3.7c5.11,0,9.25-4.14,9.25-9.25v-45.9h15.66c5.11,0,9.25-4.14,9.25-9.25v-4.3
			C253.45,44.59,249.31,40.45,244.21,40.45z"/>
	</g>
	<g>
		<path class="st3" d="M42.06,137.67c-0.82-0.47-1.44-1.13-1.88-1.99c-0.44-0.87-0.66-1.87-0.66-3.01c0-1.15,0.22-2.15,0.66-3.01
			c0.44-0.85,1.06-1.52,1.88-1.98c0.82-0.47,1.77-0.7,2.87-0.7c0.75,0,1.45,0.12,2.11,0.35c0.66,0.23,1.22,0.56,1.67,0.98
			l-0.68,1.48c-0.5-0.4-1.01-0.69-1.5-0.87c-0.5-0.18-1.02-0.28-1.58-0.28c-1.07,0-1.9,0.35-2.49,1.04c-0.58,0.69-0.88,1.69-0.88,3
			c0,1.31,0.3,2.32,0.88,3.01c0.59,0.69,1.41,1.04,2.49,1.04c0.56,0,1.08-0.09,1.58-0.28c0.49-0.19,1-0.48,1.5-0.87l0.68,1.48
			c-0.45,0.42-1.01,0.75-1.67,0.98c-0.66,0.23-1.37,0.35-2.11,0.35C43.83,138.37,42.88,138.13,42.06,137.67z"/>
		<path class="st3" d="M52.12,137.67c-0.79-0.47-1.41-1.13-1.84-1.99c-0.43-0.86-0.65-1.87-0.65-3.03c0-1.16,0.21-2.17,0.64-3.02
			c0.43-0.86,1.04-1.52,1.84-1.98c0.8-0.46,1.74-0.69,2.83-0.69c1.08,0,2.02,0.23,2.82,0.69c0.79,0.46,1.4,1.13,1.83,1.98
			c0.43,0.86,0.64,1.86,0.64,3.02c0,1.15-0.22,2.16-0.65,3.03c-0.43,0.86-1.04,1.52-1.84,1.99c-0.79,0.46-1.73,0.69-2.8,0.69
			C53.85,138.37,52.91,138.14,52.12,137.67z M57.32,135.68c0.57-0.7,0.86-1.71,0.86-3.03c0-1.32-0.28-2.33-0.86-3.02
			c-0.58-0.7-1.37-1.05-2.39-1.05c-1.03,0-1.83,0.35-2.41,1.05c-0.57,0.7-0.86,1.7-0.86,3.02c0,1.31,0.29,2.33,0.86,3.03
			c0.57,0.71,1.38,1.06,2.41,1.06C55.95,136.74,56.75,136.39,57.32,135.68z"/>
		<path class="st3" d="M69.36,127.1h1.91v11.13h-1.53l-5.96-7.76v7.76h-1.9V127.1h1.51l5.96,7.75V127.1z"/>
		<path class="st3" d="M74.64,138.02c-0.75-0.23-1.38-0.56-1.89-0.98l0.68-1.48c0.54,0.41,1.1,0.71,1.7,0.9
			c0.59,0.19,1.24,0.28,1.94,0.28c0.77,0,1.36-0.13,1.77-0.4c0.41-0.27,0.62-0.64,0.62-1.13c0-0.42-0.19-0.74-0.57-0.96
			c-0.38-0.22-1.02-0.43-1.92-0.64c-0.93-0.2-1.68-0.43-2.26-0.69c-0.58-0.27-1.02-0.6-1.31-1.01c-0.29-0.41-0.44-0.93-0.44-1.56
			c0-0.65,0.18-1.23,0.54-1.75c0.36-0.52,0.86-0.92,1.51-1.21c0.65-0.29,1.4-0.43,2.26-0.43c0.78,0,1.52,0.12,2.23,0.35
			c0.7,0.23,1.28,0.56,1.73,0.97l-0.68,1.48c-0.99-0.79-2.08-1.18-3.28-1.18c-0.72,0-1.28,0.15-1.7,0.43
			c-0.42,0.29-0.63,0.7-0.63,1.21c0,0.43,0.19,0.76,0.55,0.99c0.37,0.23,0.99,0.45,1.88,0.65c0.94,0.21,1.7,0.45,2.28,0.7
			c0.58,0.26,1.03,0.59,1.34,0.98c0.31,0.4,0.46,0.91,0.46,1.52c0,0.66-0.18,1.24-0.53,1.74c-0.35,0.5-0.86,0.88-1.53,1.15
			c-0.67,0.27-1.45,0.4-2.36,0.4C76.19,138.37,75.39,138.25,74.64,138.02z"/>
		<path class="st3" d="M85.33,138.23v-9.45H81.7v-1.68h9.29v1.68h-3.63v9.45H85.33z"/>
		<path class="st3" d="M101.31,138.23H99.1l-1.91-3.55c-0.18-0.34-0.4-0.58-0.66-0.71c-0.26-0.14-0.59-0.2-1-0.2h-1.54v4.46h-2
			V127.1h4.93c1.26,0,2.22,0.28,2.88,0.85c0.65,0.57,0.99,1.38,0.99,2.44c0,0.85-0.24,1.56-0.72,2.11
			c-0.48,0.56-1.15,0.91-2.03,1.08c0.59,0.15,1.06,0.57,1.42,1.24L101.31,138.23z M98.31,131.76c0.36-0.29,0.54-0.74,0.54-1.33
			c0-0.61-0.18-1.05-0.54-1.33c-0.35-0.28-0.92-0.42-1.69-0.42h-2.65v3.52h2.65C97.39,132.2,97.96,132.05,98.31,131.76z"/>
		<path class="st3" d="M103.68,137.18c-0.79-0.79-1.19-1.94-1.19-3.46v-6.63h1.99v6.74c0,0.96,0.23,1.68,0.68,2.17
			c0.45,0.49,1.11,0.73,1.99,0.73c0.86,0,1.52-0.24,1.97-0.74c0.45-0.49,0.68-1.21,0.68-2.16v-6.74h1.99v6.63
			c0,1.51-0.4,2.65-1.18,3.45c-0.79,0.79-1.94,1.19-3.46,1.19C105.62,138.37,104.47,137.97,103.68,137.18z"/>
		<path class="st3" d="M115.91,137.67c-0.81-0.47-1.44-1.13-1.88-1.99c-0.44-0.87-0.66-1.87-0.66-3.01c0-1.15,0.22-2.15,0.66-3.01
			c0.44-0.85,1.06-1.52,1.88-1.98c0.82-0.47,1.77-0.7,2.87-0.7c0.74,0,1.45,0.12,2.11,0.35c0.66,0.23,1.22,0.56,1.67,0.98
			l-0.68,1.48c-0.5-0.4-1-0.69-1.5-0.87c-0.49-0.18-1.02-0.28-1.58-0.28c-1.07,0-1.9,0.35-2.48,1.04c-0.59,0.69-0.88,1.69-0.88,3
			c0,1.31,0.29,2.32,0.88,3.01c0.58,0.69,1.41,1.04,2.48,1.04c0.56,0,1.08-0.09,1.58-0.28c0.5-0.19,1-0.48,1.5-0.87l0.68,1.48
			c-0.45,0.42-1.01,0.75-1.67,0.98c-0.66,0.23-1.37,0.35-2.11,0.35C117.69,138.37,116.73,138.13,115.91,137.67z"/>
		<path class="st3" d="M126.01,137.67c-0.82-0.47-1.44-1.13-1.88-1.99c-0.44-0.87-0.66-1.87-0.66-3.01c0-1.15,0.22-2.15,0.66-3.01
			c0.44-0.85,1.06-1.52,1.88-1.98c0.81-0.47,1.77-0.7,2.86-0.7c0.75,0,1.45,0.12,2.12,0.35c0.66,0.23,1.22,0.56,1.67,0.98
			l-0.68,1.48c-0.5-0.4-1-0.69-1.5-0.87c-0.5-0.18-1.02-0.28-1.58-0.28c-1.07,0-1.91,0.35-2.49,1.04c-0.59,0.69-0.88,1.69-0.88,3
			c0,1.31,0.29,2.32,0.88,3.01c0.58,0.69,1.41,1.04,2.49,1.04c0.56,0,1.08-0.09,1.58-0.28c0.5-0.19,1-0.48,1.5-0.87l0.68,1.48
			c-0.45,0.42-1.01,0.75-1.67,0.98c-0.67,0.23-1.37,0.35-2.12,0.35C127.78,138.37,126.83,138.13,126.01,137.67z"/>
		<path class="st3" d="M134.13,138.23V127.1h2.03v11.13H134.13z"/>
		<path class="st3" d="M140.31,137.67c-0.79-0.47-1.41-1.13-1.84-1.99c-0.43-0.86-0.65-1.87-0.65-3.03c0-1.16,0.21-2.17,0.64-3.02
			c0.43-0.86,1.04-1.52,1.84-1.98c0.8-0.46,1.74-0.69,2.83-0.69c1.09,0,2.02,0.23,2.82,0.69c0.79,0.46,1.41,1.13,1.83,1.98
			c0.43,0.86,0.64,1.86,0.64,3.02c0,1.15-0.22,2.16-0.65,3.03c-0.43,0.86-1.04,1.52-1.84,1.99c-0.79,0.46-1.73,0.69-2.8,0.69
			C142.04,138.37,141.1,138.14,140.31,137.67z M145.52,135.68c0.57-0.7,0.86-1.71,0.86-3.03c0-1.32-0.28-2.33-0.86-3.02
			c-0.57-0.7-1.37-1.05-2.39-1.05c-1.03,0-1.83,0.35-2.41,1.05c-0.57,0.7-0.86,1.7-0.86,3.02c0,1.31,0.29,2.33,0.86,3.03
			c0.57,0.71,1.37,1.06,2.41,1.06C144.15,136.74,144.94,136.39,145.52,135.68z M143.74,126.15h-1.27l1.61-2.43H146L143.74,126.15z"
			/>
		<path class="st3" d="M157.55,127.1h1.91v11.13h-1.53l-5.97-7.76v7.76h-1.89V127.1h1.51l5.96,7.75V127.1z"/>
		<path class="st3" d="M173.11,138.23l-1.17-1.2c-0.46,0.42-0.98,0.75-1.56,0.98c-0.58,0.23-1.17,0.35-1.81,0.35
			c-0.75,0-1.41-0.13-1.99-0.38c-0.58-0.26-1.03-0.62-1.35-1.07c-0.32-0.46-0.48-0.99-0.48-1.59c0-0.66,0.19-1.26,0.56-1.78
			c0.37-0.53,0.97-1.02,1.79-1.48c-0.41-0.45-0.7-0.87-0.89-1.25c-0.19-0.38-0.28-0.78-0.28-1.18c0-0.79,0.28-1.42,0.85-1.9
			c0.56-0.48,1.29-0.72,2.2-0.72c0.84,0,1.51,0.22,2.01,0.65c0.5,0.44,0.75,1.03,0.75,1.76c0,0.57-0.16,1.08-0.49,1.52
			c-0.33,0.45-0.86,0.9-1.61,1.35l2.2,2.24c0.43-0.85,0.66-1.84,0.71-2.98h1.64c-0.06,1.62-0.46,3.01-1.18,4.18l2.44,2.51H173.11z
			 M170.85,135.91l-2.71-2.81c-0.52,0.32-0.89,0.64-1.11,0.97c-0.23,0.33-0.35,0.71-0.35,1.14c0,0.49,0.18,0.89,0.53,1.18
			c0.35,0.29,0.83,0.43,1.43,0.43C169.47,136.82,170.21,136.52,170.85,135.91z M168.07,128.69c-0.23,0.23-0.35,0.53-0.35,0.91
			c0,0.25,0.07,0.5,0.19,0.73c0.13,0.23,0.37,0.54,0.73,0.92c0.56-0.32,0.95-0.61,1.17-0.88c0.22-0.27,0.33-0.56,0.33-0.88
			c0-0.35-0.1-0.62-0.31-0.83c-0.21-0.2-0.49-0.31-0.82-0.31C168.61,128.35,168.31,128.46,168.07,128.69z"/>
		<path class="st3" d="M188.86,132.21v5.33c-0.5,0.25-1.12,0.45-1.84,0.6c-0.72,0.15-1.45,0.22-2.2,0.22
			c-1.15,0-2.14-0.23-2.98-0.69c-0.84-0.46-1.49-1.11-1.93-1.97c-0.45-0.86-0.67-1.88-0.67-3.05c0-1.17,0.23-2.18,0.67-3.04
			c0.45-0.86,1.08-1.52,1.91-1.97c0.83-0.46,1.8-0.68,2.91-0.68c0.77,0,1.51,0.11,2.19,0.34c0.68,0.23,1.25,0.55,1.7,0.97
			l-0.68,1.47c-0.51-0.4-1.02-0.69-1.52-0.86c-0.5-0.17-1.05-0.26-1.65-0.26c-1.15,0-2.01,0.34-2.59,1.02
			c-0.59,0.68-0.88,1.69-0.88,3.02c0,2.73,1.2,4.1,3.6,4.1c0.71,0,1.43-0.1,2.14-0.3v-2.79h-2.4v-1.45H188.86z"/>
		<path class="st3" d="M190.75,138.23V127.1h7.45v1.61h-5.46v3.06h5.14v1.59h-5.14v3.25h5.46v1.61H190.75z"/>
		<path class="st3" d="M200.86,138.02c-0.75-0.23-1.38-0.56-1.89-0.98l0.67-1.48c0.54,0.41,1.11,0.71,1.7,0.9
			c0.6,0.19,1.24,0.28,1.93,0.28c0.77,0,1.36-0.13,1.78-0.4c0.41-0.27,0.62-0.64,0.62-1.13c0-0.42-0.19-0.74-0.57-0.96
			c-0.39-0.22-1.03-0.43-1.92-0.64c-0.92-0.2-1.68-0.43-2.26-0.69c-0.58-0.27-1.01-0.6-1.31-1.01c-0.3-0.41-0.44-0.93-0.44-1.56
			c0-0.65,0.18-1.23,0.54-1.75c0.35-0.52,0.86-0.92,1.51-1.21c0.65-0.29,1.41-0.43,2.26-0.43c0.78,0,1.52,0.12,2.22,0.35
			c0.71,0.23,1.29,0.56,1.74,0.97l-0.68,1.48c-0.98-0.79-2.08-1.18-3.28-1.18c-0.72,0-1.28,0.15-1.69,0.43
			c-0.41,0.29-0.62,0.7-0.62,1.21c0,0.43,0.18,0.76,0.55,0.99c0.37,0.23,0.99,0.45,1.88,0.65c0.93,0.21,1.69,0.45,2.28,0.7
			c0.59,0.26,1.03,0.59,1.34,0.98c0.31,0.4,0.47,0.91,0.47,1.52c0,0.66-0.18,1.24-0.53,1.74c-0.35,0.5-0.86,0.88-1.53,1.15
			c-0.67,0.27-1.45,0.4-2.36,0.4C202.41,138.37,201.61,138.25,200.86,138.02z"/>
		<path class="st3" d="M211.55,138.23v-9.45h-3.63v-1.68h9.3v1.68h-3.63v9.45H211.55z"/>
		<path class="st3" d="M218.21,138.23V127.1h2.03v11.13H218.21z"/>
		<path class="st3" d="M224.39,137.67c-0.79-0.47-1.41-1.13-1.84-1.99c-0.43-0.86-0.64-1.87-0.64-3.03c0-1.16,0.21-2.17,0.63-3.02
			c0.43-0.86,1.04-1.52,1.84-1.98c0.8-0.46,1.74-0.69,2.82-0.69c1.08,0,2.02,0.23,2.82,0.69c0.79,0.46,1.4,1.13,1.83,1.98
			c0.43,0.86,0.64,1.86,0.64,3.02c0,1.15-0.21,2.16-0.65,3.03c-0.43,0.86-1.04,1.52-1.84,1.99c-0.79,0.46-1.73,0.69-2.8,0.69
			C226.11,138.37,225.18,138.14,224.39,137.67z M229.59,135.68c0.58-0.7,0.86-1.71,0.86-3.03c0-1.32-0.28-2.33-0.86-3.02
			c-0.57-0.7-1.37-1.05-2.39-1.05c-1.03,0-1.83,0.35-2.41,1.05c-0.57,0.7-0.86,1.7-0.86,3.02c0,1.31,0.29,2.33,0.86,3.03
			c0.58,0.71,1.38,1.06,2.41,1.06C228.22,136.74,229.02,136.39,229.59,135.68z M227.82,126.15h-1.26l1.61-2.43h1.91L227.82,126.15z"
			/>
		<path class="st3" d="M241.62,127.1h1.91v11.13H242l-5.96-7.76v7.76h-1.89V127.1h1.52l5.96,7.75V127.1z"/>
	</g>
</g>
</svg>
