<?xml version="1.0" encoding="utf-8"?>
<!-- Generator: Adobe Illustrator 23.0.0, SVG Export Plug-In . SVG Version: 6.00 Build 0)  -->
<svg version="1.1" id="Layer_1" xmlns="http://www.w3.org/2000/svg" xmlns:xlink="http://www.w3.org/1999/xlink" x="0px" y="0px"
	 viewBox="0 0 700 700" style="enable-background:new 0 0 700 700;" xml:space="preserve">
<style type="text/css">
	.st0{fill:#FFFFFF;stroke:#153156;stroke-width:3.1674;stroke-miterlimit:10;}
	.st1{fill:#063D5D;}
	.st2{fill:#DEF1FC;stroke:#073C5C;stroke-width:15.3678;stroke-linecap:round;stroke-linejoin:round;stroke-miterlimit:10;}
	.st3{fill:none;stroke:#073C5C;stroke-width:16.5843;stroke-linecap:round;stroke-linejoin:round;stroke-miterlimit:10;}
</style>
<path class="st0" d="M683.49,696h-666c-6.6,0-12-5.4-12-12V18c0-6.6,5.4-12,12-12h666c6.6,0,12,5.4,12,12v666
	C695.49,690.6,690.09,696,683.49,696z"/>
<g>
	<path class="st1" d="M458.26,201.63h-95.4c0-13.17-10.68-23.85-23.85-23.85s-23.85,10.68-23.85,23.85h-95.4
		c-9.88,0-17.89,8.01-17.89,17.89v298.12c0,9.88,8.01,17.89,17.89,17.89h238.5c9.88,0,17.89-8.01,17.89-17.89V219.52
		C476.14,209.64,468.13,201.63,458.26,201.63z M339.01,189.71c6.59,0,11.92,5.34,11.92,11.92h-23.85
		C327.08,195.05,332.42,189.71,339.01,189.71z M303.23,213.56h71.55v29.81h-71.55V213.56z M297.27,255.3h83.47
		c3.29,0,5.96-2.67,5.96-5.96v-11.92h53.66v262.35H237.65V237.41h53.66v11.92C291.31,252.63,293.98,255.3,297.27,255.3z
		 M464.22,517.64c0,3.29-2.67,5.96-5.96,5.96h-238.5c-3.29,0-5.96-2.67-5.96-5.96V219.52c0-3.29,2.67-5.96,5.96-5.96h71.55v11.92
		h-59.62c-3.29,0-5.96,2.67-5.96,5.96v274.27c0,3.29,2.67,5.96,5.96,5.96h214.65c3.29,0,5.96-2.67,5.96-5.96V231.45
		c0-3.29-2.67-5.96-5.96-5.96h-59.62v-11.92h71.55c3.29,0,5.96,2.67,5.96,5.96V517.64z"/>
	<path class="st1" d="M261.5,297.03v107.32c0,3.29,2.67,5.96,5.96,5.96h143.1c3.29,0,5.96-2.67,5.96-5.96V297.03
		c0-3.29-2.67-5.96-5.96-5.96h-143.1C264.17,291.07,261.5,293.74,261.5,297.03z M333.05,398.39H309.2v-11.92h23.85V398.39z
		 M333.05,374.54H309.2v-11.92h23.85V374.54z M333.05,350.69H309.2v-11.92h23.85V350.69z M368.82,398.39h-23.85v-11.92h23.85V398.39
		z M368.82,374.54h-23.85v-11.92h23.85V374.54z M368.82,350.69h-23.85v-11.92h23.85V350.69z M404.59,398.39h-23.85v-11.92h23.85
		V398.39z M404.59,374.54h-23.85v-11.92h23.85V374.54z M404.59,350.69h-23.85v-11.92h23.85V350.69z M273.42,302.99h131.17v23.85
		H273.42V302.99z M273.42,338.77h23.85v11.92h-23.85V338.77z M273.42,362.62h23.85v11.92h-23.85V362.62z M273.42,386.47h23.85v11.92
		h-23.85V386.47z"/>
	<path class="st1" d="M333.05,428.21h11.92v11.92h-11.92V428.21z"/>
	<path class="st1" d="M309.2,428.21h11.92v11.92H309.2V428.21z"/>
	<path class="st1" d="M356.9,428.21h11.92v11.92H356.9V428.21z"/>
	<path class="st1" d="M380.75,428.21h11.92v11.92h-11.92V428.21z"/>
	<path class="st1" d="M285.35,428.21h11.92v11.92h-11.92V428.21z"/>
	<path class="st1" d="M285.35,452.06h107.32v11.92H285.35V452.06z"/>
	<path class="st2" d="M468.59,457.44L468.59,457.44c-43.05,0-78.27-35.22-78.27-78.27v0c0-43.05,35.22-78.27,78.27-78.27h0
		c43.05,0,78.27,35.22,78.27,78.27v0C546.85,422.22,511.63,457.44,468.59,457.44z"/>
	<line class="st3" x1="468.59" y1="350.86" x2="468.59" y2="407.48"/>
	<line class="st3" x1="496.9" y1="379.17" x2="440.27" y2="379.17"/>
</g>
</svg>
