<?xml version="1.0" encoding="utf-8"?>
<!-- Generator: Adobe Illustrator 23.0.0, SVG Export Plug-In . SVG Version: 6.00 Build 0)  -->
<svg version="1.1" id="Layer_1" xmlns="http://www.w3.org/2000/svg" xmlns:xlink="http://www.w3.org/1999/xlink" x="0px" y="0px"
	 viewBox="0 0 700 700" style="enable-background:new 0 0 700 700;" xml:space="preserve">
<style type="text/css">
	.st0{fill:#FFFFFF;stroke:#153156;stroke-width:3.1674;stroke-miterlimit:10;}
	.st1{fill:none;stroke:#073C5C;stroke-width:14.5471;stroke-linecap:round;stroke-linejoin:round;stroke-miterlimit:10;}
	.st2{fill:#DEF1FC;stroke:#073C5C;stroke-width:15.3678;stroke-linecap:round;stroke-linejoin:round;stroke-miterlimit:10;}
</style>
<g>
	<path class="st0" d="M683.76,694.9h-666c-6.6,0-12-5.4-12-12v-666c0-6.6,5.4-12,12-12h666c6.6,0,12,5.4,12,12v666
		C695.76,689.5,690.36,694.9,683.76,694.9z"/>
	<g>
		<path class="st1" d="M511.67,504.61H193.88c-2.75,0-5-2.25-5-5V301.56c0-2.75,2.25-5,5-5h317.79c2.75,0,5,2.25,5,5v198.05
			C516.67,502.36,514.42,504.61,511.67,504.61z"/>
		<g>
			<rect x="367.71" y="379.41" class="st1" width="115.12" height="96.83"/>
			<g>
				<rect x="428.12" y="176.58" class="st1" width="54.7" height="119.98"/>
				<line class="st1" x1="455.47" y1="199.04" x2="482.83" y2="199.04"/>
				<line class="st1" x1="455.47" y1="242.41" x2="482.83" y2="242.41"/>
				<line class="st1" x1="466.42" y1="220.73" x2="482.83" y2="220.73"/>
				<line class="st1" x1="466.42" y1="264.1" x2="482.83" y2="264.1"/>
			</g>
			<rect x="222.72" y="379.41" class="st1" width="115.12" height="96.83"/>
			<g>
				<rect x="222.72" y="220.73" class="st1" width="43.76" height="75.83"/>
				<line class="st1" x1="244.61" y1="289.76" x2="244.61" y2="222.43"/>
				<polyline class="st1" points="222.96,220.57 245.18,183.65 265.95,219.72 				"/>
			</g>
		</g>
		<g>
			<rect x="298.22" y="327.56" class="st1" width="109.14" height="22.37"/>
			<line class="st1" x1="319.95" y1="327.56" x2="319.95" y2="349.93"/>
			<line class="st1" x1="341.99" y1="327.56" x2="341.99" y2="349.93"/>
			<line class="st1" x1="364.03" y1="327.56" x2="364.03" y2="349.93"/>
			<line class="st1" x1="386.07" y1="327.56" x2="386.07" y2="349.93"/>
		</g>
	</g>
	<path class="st2" d="M518.66,472.25L518.66,472.25c-40.79,0-74.17-33.38-74.17-74.17v0c0-40.79,33.38-74.17,74.17-74.17h0
		c40.79,0,74.17,33.38,74.17,74.17v0C592.83,438.88,559.45,472.25,518.66,472.25z"/>
	<line class="st1" x1="517.02" y1="373.49" x2="517.02" y2="425.96"/>
	<line class="st1" x1="543.25" y1="399.72" x2="490.78" y2="399.72"/>
</g>
</svg>
