<?xml version="1.0" encoding="utf-8"?>
<!-- Generator: Adobe Illustrator 23.0.0, SVG Export Plug-In . SVG Version: 6.00 Build 0)  -->
<svg version="1.1" id="Layer_1" xmlns="http://www.w3.org/2000/svg" xmlns:xlink="http://www.w3.org/1999/xlink" x="0px" y="0px"
	 viewBox="0 0 700 700" style="enable-background:new 0 0 700 700;" xml:space="preserve">
<style type="text/css">
	.st0{fill:#FFFFFF;stroke:#153156;stroke-width:3.1674;stroke-miterlimit:10;}
	.st1{fill:none;stroke:#073C5C;stroke-width:14.5471;stroke-linecap:round;stroke-linejoin:round;stroke-miterlimit:10;}
	.st2{fill:#DEF1FC;stroke:#073C5C;stroke-width:15.3678;stroke-linecap:round;stroke-linejoin:round;stroke-miterlimit:10;}
</style>
<g>
	<path class="st0" d="M683.52,694.76h-666c-6.6,0-12-5.4-12-12v-666c0-6.6,5.4-12,12-12h666c6.6,0,12,5.4,12,12v666
		C695.52,689.36,690.12,694.76,683.52,694.76z"/>
	<g>
		<g>
			<polyline class="st1" points="174.28,225.33 236.5,225.33 274.16,390.92 444.87,390.92 483.78,258.74 245.84,258.74 			"/>
			<path class="st1" d="M443.15,431.63H281.88c-10.6,0-19.28-9.16-19.28-20.36v0c0-11.2,8.67-20.36,19.28-20.36h161.26"/>
			<path class="st1" d="M301.33,477.31L301.33,477.31c-9.12,0-16.58-7.46-16.58-16.58v0c0-9.12,7.46-16.58,16.58-16.58h0
				c9.12,0,16.58,7.46,16.58,16.58v0C317.91,469.85,310.45,477.31,301.33,477.31z"/>
			<path class="st1" d="M431.51,477.31H402.7c-1.2,0-2.17-0.98-2.17-2.17v-28.81c0-1.2,0.98-2.17,2.17-2.17h28.81
				c1.2,0,2.17,0.98,2.17,2.17v28.81C433.68,476.33,432.7,477.31,431.51,477.31z"/>
		</g>
		<g>
			<path class="st2" d="M440.95,469.31L440.95,469.31c-40.48,0-73.59-33.12-73.59-73.59v0c0-40.48,33.12-73.59,73.59-73.59h0
				c40.48,0,73.59,33.12,73.59,73.59v0C514.54,436.2,481.42,469.31,440.95,469.31z"/>
			<line class="st2" x1="440.95" y1="369.1" x2="440.95" y2="422.34"/>
			<line class="st2" x1="467.57" y1="395.72" x2="414.33" y2="395.72"/>
		</g>
	</g>
</g>
</svg>
